<?xml version="1.0" encoding="UTF-8"?>
<!DOCTYPE svg PUBLIC "-//W3C//DTD SVG 1.0//EN" "http://www.w3.org/TR/2001/REC-SVG-20010904/DTD/svg10.dtd">

<!-- ========================================== -->
<!--  Scientific databases time frame coverage  -->
<!-- ****************************************** -->
<!-- Auteur  : Raphaël Grolimund                -->
<!-- Date    : 2018-05-11                       -->
<!-- Contact : grolimur@nous4.ch                -->
<!-- Twitter : @grolimur                        -->
<!-- Github  : grolimur                         -->
<!-- Licence : CC BY                            -->
<!-- ========================================== -->

<svg xmlns:svg="http://www.w3.org/2000/svg"  xmlns="http://www.w3.org/2000/svg" xmlns:xlink="http://www.w3.org/1999/xlink" version="1.0" width="900" height="800" viewBox="0 0 900 800">
<!-- defitions -->
<defs>
	<linearGradient id="red-gradient">
		<stop offset="0%" style="stop-color: #ef5354;" />
		<stop offset="80%" style="stop-color: #ffffff;" />
	</linearGradient>
  <linearGradient id="yellow-gradient">
		<stop offset="0%" style="stop-color: #f2c02b;" />
		<stop offset="80%" style="stop-color: #ffffff;" />
	</linearGradient>
  <linearGradient id="#red-fill" xlink:href="#red-gradient" x1="0%" y1="0%" x2="100%" y2="0%" />
	<linearGradient id="#yellow-fill" xlink:href="#yellow-gradient" x1="0%" y1="0%" x2="100%" y2="0%" />
</defs>

<!-- caption -->
<rect x="100" y="36" width="16" height="16" style="fill: #ef5354;" />
<text x="125" y="50" style="font-size: 16px;" >bases de données multidisciplinaires</text>
<rect x="420" y="36" width="16" height="16" style="fill: #f2c02b;" />
<text x="445" y="50" style="font-size: 16px;" >bases de données spécialisées</text>
<!-- time scale -->
<text x="400" y="100" style="font-size: 20px; text-anchor: middle;" >1800</text>
<line x1="400" y1="120" x2="400" y2="760" style="stroke: black; stroke-width: 2px;" />
<line x1="420" y1="120" x2="420" y2="760" style="stroke: black; stroke-width: 1px; stroke-dasharray:6,6;" />
<line x1="440" y1="120" x2="440" y2="760" style="stroke: black; stroke-width: 1px; stroke-dasharray:6,6;" />
<line x1="460" y1="120" x2="460" y2="760" style="stroke: black; stroke-width: 1px; stroke-dasharray:6,6;" />
<line x1="480" y1="120" x2="480" y2="760" style="stroke: black; stroke-width: 1px; stroke-dasharray:6,6;" />
<text x="500" y="100" style="font-size: 20px; text-anchor: middle;" >1850</text>
<line x1="500" y1="120" x2="500" y2="760" style="stroke: black; stroke-width: 2px;" />
<line x1="520" y1="120" x2="520" y2="760" style="stroke: black; stroke-width: 1px; stroke-dasharray:6,6;" />
<line x1="540" y1="120" x2="540" y2="760" style="stroke: black; stroke-width: 1px; stroke-dasharray:6,6;" />
<line x1="560" y1="120" x2="560" y2="760" style="stroke: black; stroke-width: 1px; stroke-dasharray:6,6;" />
<line x1="580" y1="120" x2="580" y2="760" style="stroke: black; stroke-width: 1px; stroke-dasharray:6,6;" />
<text x="600" y="100" style="font-size: 20px; text-anchor: middle;" >1900</text>
<line x1="600" y1="120" x2="600" y2="760" style="stroke: black; stroke-width: 2px;" />
<line x1="620" y1="120" x2="620" y2="760" style="stroke: black; stroke-width: 1px; stroke-dasharray:6,6;" />
<line x1="640" y1="120" x2="640" y2="760" style="stroke: black; stroke-width: 1px; stroke-dasharray:6,6;" />
<line x1="660" y1="120" x2="660" y2="760" style="stroke: black; stroke-width: 1px; stroke-dasharray:6,6;" />
<line x1="680" y1="120" x2="680" y2="760" style="stroke: black; stroke-width: 1px; stroke-dasharray:6,6;" />
<text x="700" y="100" style="font-size: 20px; text-anchor: middle;" >1950</text>
<line x1="700" y1="120" x2="700" y2="760" style="stroke: black; stroke-width: 2px;" />
<line x1="720" y1="120" x2="720" y2="760" style="stroke: black; stroke-width: 1px; stroke-dasharray:6,6;" />
<line x1="740" y1="120" x2="740" y2="760" style="stroke: black; stroke-width: 1px; stroke-dasharray:6,6;" />
<line x1="760" y1="120" x2="760" y2="760" style="stroke: black; stroke-width: 1px; stroke-dasharray:6,6;" />
<line x1="780" y1="120" x2="780" y2="760" style="stroke: black; stroke-width: 1px; stroke-dasharray:6,6;" />
<text x="800" y="100" style="font-size: 20px; text-anchor: middle;" >2000</text>
<line x1="800" y1="120" x2="800" y2="760" style="stroke: black; stroke-width: 2px;" />
<line x1="820" y1="120" x2="820" y2="760" style="stroke: black; stroke-width: 1px; stroke-dasharray:6,6;" />
<line x1="840" y1="120" x2="840" y2="760" style="stroke: black; stroke-width: 1px; stroke-dasharray:6,6;" />
<line x1="860" y1="120" x2="860" y2="760" style="stroke: black; stroke-width: 1px; stroke-dasharray:6,6;" />

<!-- database list -->
<text x="40" y="150" style="font-size: 30px;" >Web of Science</text><text x="280" y="150" style="font-size: 15px;" >Core Collection</text>
<text x="40" y="200" style="font-size: 30px;" >Scopus</text>
<text x="40" y="250" style="font-size: 30px;" >ScienceDirect</text>
<text x="40" y="300" style="font-size: 30px;" >SpringerLink</text>
<text x="40" y="350" style="font-size: 30px;" >Compendex</text>
<text x="40" y="400" style="font-size: 30px;" >Inspec</text>
<text x="40" y="450" style="font-size: 30px;" >Wiley Online Library</text>

<text x="40" y="500" style="font-size: 30px;" >GEOBASE</text>
<text x="40" y="550" style="font-size: 30px;" >GeoRef</text>
<text x="40" y="600" style="font-size: 30px;" >IEEE Xplore</text>
<text x="40" y="650" style="font-size: 30px;" >MathSciNet</text>
<text x="40" y="700" style="font-size: 30px;" >zbMATH</text>
<text x="40" y="750" style="font-size: 30px;" >Medline</text>
<text x="40" y="800" style="font-size: 30px;" >Chemical Abstracts</text>

<!-- time frame -->
<rect x="600" y="125" width="240" height="30" style="fill: #ef5354;" />
<rect x="376" y="175" width="464" height="30" style="fill:#ef5354;" />
<line x1="740" y1="175" x2="740" y2="205" style="stroke: black; stroke-width: 1px;" />
<rect x="446" y="225" width="394" height="30" style="fill: #ef5354;" />
<rect x="430" y="275" width="410" height="30" style="fill: #ef5354;" />
<rect x="740" y="325" width="100" height="30" style="fill: #ef5354;" />
<rect x="738" y="375" width="102" height="30" style="fill: #ef5354;" />
<rect x="794" y="425" width="56" height="30" style="fill: #ef5354;" />

<rect x="748" y="475" width="92" height="30" style="fill: #f2c02b;" />
<rect x="200" y="525" width="640" height="30" style="fill: #f2c02b;" />
<text x="210" y="546" style="font-size: 14px;" >1669</text>
<line x1="786" y1="525" x2="786" y2="555" style="stroke: black; stroke-width: 1px;" />
<rect x="544" y="575" width="296" height="30" style="fill: #f2c02b;" />
<line x1="776" y1="575" x2="776" y2="605" style="stroke: black; stroke-width: 1px;" />
<rect x="400" y="625" width="440" height="30" style="fill: #f2c02b;" />
<rect x="536" y="675" width="304" height="30" style="fill: #f2c02b;" />
<rect x="692" y="725" width="148" height="30" style="fill: #f2c02b;" />
<rect x="614" y="775" width="226" height="30" style="fill: #f2c02b;" />

<!-- gradient -->
<rect x="840" y="125" width="40" height="30" style="fill: url(#red-gradient);" />
<rect x="840" y="175" width="40" height="30" style="fill: url(#red-gradient);" />
<rect x="840" y="225" width="40" height="30" style="fill: url(#red-gradient);" />
<rect x="840" y="275" width="40" height="30" style="fill: url(#red-gradient);" />
<rect x="840" y="325" width="40" height="30" style="fill: url(#red-gradient);" />
<rect x="840" y="375" width="40" height="30" style="fill: url(#red-gradient);" />
<rect x="840" y="425" width="40" height="30" style="fill: url(#red-gradient);" />

<rect x="840" y="475" width="40" height="30" style="fill: url(#yellow-gradient);" />
<rect x="840" y="525" width="40" height="30" style="fill: url(#yellow-gradient);" />
<rect x="840" y="575" width="40" height="30" style="fill: url(#yellow-gradient);" />
<rect x="840" y="625" width="40" height="30" style="fill: url(#yellow-gradient);" />
<rect x="840" y="675" width="40" height="30" style="fill: url(#yellow-gradient);" />
<rect x="840" y="725" width="40" height="30" style="fill: url(#yellow-gradient);" />
<rect x="840" y="775" width="40" height="30" style="fill: url(#yellow-gradient);" />

</svg>
